<svg width="250" height="30" viewBox="0 0 250 30" fill="none" xmlns="http://www.w3.org/2000/svg">
<mask id="mask0_29_45" style="mask-type:luminance" maskUnits="userSpaceOnUse" x="0" y="0" width="250" height="30">
<path d="M0 0H250V30H0V0Z" fill="white"/>
</mask>
<g mask="url(#mask0_29_45)">
<mask id="mask1_29_45" style="mask-type:luminance" maskUnits="userSpaceOnUse" x="0" y="0" width="250" height="30">
<path d="M250 0H0V30H250V0Z" fill="white"/>
</mask>
<g mask="url(#mask1_29_45)">
<path d="M0 1.20601H0.666073C2.33384 1.20601 3.54594 1.58288 4.33335 2.35674C5.12076 3.12306 5.51834 4.30896 5.51834 5.9132V23.4468C5.51834 25.0435 5.12076 26.2231 4.32689 26.997C3.53174 27.7708 2.31318 28.1615 0.666073 28.1615H0V28.8876H17.6806V28.1615H15.9858C14.3554 28.1615 13.1343 27.7721 12.3404 26.997C11.553 26.2231 11.149 25.0435 11.149 23.4468V14.5135H12.4695C14.491 14.5135 16.0516 15.1618 17.1294 16.4582C17.6425 17.0622 18.0475 17.746 18.3273 18.4808C18.6333 19.2421 18.8747 20.2597 19.0722 21.5436H19.7821V6.68078H19.1147C18.6823 9.19078 17.9659 11.0111 16.9732 12.1342C15.987 13.2573 14.6046 13.8226 12.8309 13.8226H11.149V1.20601H17.4689C19.0502 1.20601 20.4611 1.42208 21.7029 1.8467C22.9141 2.27031 24.0155 2.94647 24.93 3.82782C25.8374 4.71348 26.6107 5.84411 27.2406 7.21092C27.4613 7.65061 27.6885 8.2712 27.9221 9.07269C28.1493 9.87544 28.3546 10.7611 28.5469 11.7297H29.1781V0.508784H0V1.20601ZM62.9026 27.8487C62.363 27.6477 61.8867 27.3123 61.4543 26.8512C60.9806 26.3304 60.591 25.7424 60.299 25.1076L48.391 0H47.681L38.0501 21.0838C36.767 23.8953 35.4464 25.806 34.1001 26.8173C33.5244 27.257 33.0145 27.5635 32.5459 27.7444C32.0851 27.9392 31.4539 28.0723 30.6665 28.1565V28.8814H41.5186V28.1565C41.125 28.1412 40.7335 28.0946 40.3478 28.017C40.0199 27.9201 39.7056 27.7843 39.4119 27.6125C38.8943 27.3324 38.4825 26.9078 38.1495 26.3638C37.8306 25.7985 37.659 25.2332 37.659 24.6616C37.659 23.9995 37.8009 23.3362 38.0785 22.6817L40.0999 18.315H51.4116L53.0212 21.6905C53.1142 21.8576 53.1994 22.026 53.2768 22.1993C53.3543 22.3677 53.4059 22.4933 53.4472 22.5699C54.072 23.8739 54.476 24.7659 54.6606 25.2545C54.8439 25.757 54.9368 26.1678 54.9368 26.5171C54.9368 27.0749 54.7032 27.4869 54.2346 27.7444C53.7738 28.0233 53.0367 28.1565 52.0286 28.1565H50.0071V28.8814H65.4972V28.1565H64.7872C64.0579 28.1565 63.4331 28.051 62.9026 27.8487ZM40.433 17.6316L45.6609 6.06772L51.0295 17.6316H40.433ZM96.9382 20.575C96.569 21.4883 96.1856 22.2697 95.7751 22.9116C95.3711 23.5523 94.8948 24.2081 94.3552 24.8576C93.5019 25.8891 92.4274 26.7269 91.2068 27.3123C90.0151 27.8969 88.6986 28.2003 87.364 28.198H80.4412V5.91446C80.4412 4.31022 80.8388 3.12557 81.6249 2.35799C82.4124 1.59042 83.6322 1.20726 85.2651 1.20726H87.2078V0.523859H69.016V1.20726H69.9661C73.1932 1.20726 74.8106 2.78261 74.8106 5.91446V23.448C74.8106 26.6138 73.1932 28.1967 69.9661 28.1967H68.9657L69.016 28.8876H98.7389V17.4155H98.0225C97.6752 18.6089 97.3138 19.6541 96.9382 20.575ZM202.408 4.79011C200.932 3.34039 199.131 2.26503 196.989 1.56153C194.839 0.870586 192.329 0.508784 189.457 0.508784H171.754V1.20601H172.726C174.378 1.20601 175.606 1.58288 176.393 2.35674C177.181 3.12306 177.57 4.30896 177.57 5.9132V23.4468C177.57 25.0435 177.181 26.2231 176.385 26.997C175.584 27.7708 174.372 28.1615 172.726 28.1615H171.754V28.8876H190.719C192.974 28.8876 195.088 28.5798 197.031 27.9593C198.982 27.3525 200.337 26.4806 201.754 25.3588C203.138 24.2732 204.261 22.9068 205.046 21.3551C205.826 19.8062 206.209 16.8979 206.209 15.0776C206.209 13.4244 205.854 10.5865 205.131 9.01742C204.415 7.44709 203.727 6.03255 202.408 4.79011ZM196.761 25.693C196.189 26.285 195.512 26.7715 194.762 27.1289C194.003 27.4995 193.102 27.757 192.081 27.9178C191.066 28.0774 189.826 28.1615 188.364 28.1615H183.209V1.20601H188.024C189.457 1.20601 190.691 1.28892 191.719 1.44344C192.74 1.61052 193.641 1.86805 194.421 2.23111C195.208 2.60045 195.911 3.0816 196.535 3.67581C197.297 4.4195 197.929 5.27867 198.407 6.21973C198.896 7.18328 199.28 8.29884 199.542 9.56137C199.805 10.8302 199.932 13.4043 199.932 14.8201C199.932 19.1642 198.882 23.6013 196.761 25.693ZM241.969 28.1565C241.239 28.1565 240.614 28.051 240.082 27.8487C239.525 27.633 239.029 27.2911 238.635 26.8512C238.21 26.3915 237.827 25.8199 237.48 25.1076L225.578 0H224.869L215.231 21.0838C213.946 23.8877 212.627 25.806 211.279 26.8249C210.699 27.2558 210.187 27.5635 209.72 27.7444C209.259 27.9329 208.628 28.0723 207.841 28.1565V28.8814H218.706V28.1565C218.31 28.142 217.916 28.0954 217.528 28.017C217.202 27.9213 216.89 27.7854 216.599 27.6125C216.069 27.3144 215.63 26.8832 215.33 26.3638C215.011 25.7985 214.841 25.2332 214.841 24.6616C214.841 23.9995 214.983 23.3362 215.266 22.6817L217.287 18.315H228.586L230.202 21.6905C230.301 21.8576 230.372 22.026 230.457 22.1993L230.628 22.5699C231.253 23.8739 231.657 24.7659 231.848 25.2621C232.025 25.757 232.117 26.1678 232.117 26.5171C232.117 27.0749 231.884 27.4869 231.422 27.7444C230.961 28.0233 230.216 28.1565 229.217 28.1565H227.195V28.8814H242.678V28.1565H241.969ZM217.614 17.6316L222.84 6.06144L228.202 17.6316H217.614ZM113.158 0.523859H105.753V1.20726H106.492C108.136 1.20726 109.357 1.59042 110.145 2.36428C110.923 3.12431 111.328 4.31148 111.328 5.922V23.448C111.328 25.0447 110.923 26.2244 110.129 26.9982C109.335 27.7721 108.122 28.1628 106.492 28.1628H105.753V28.8876H122.547V28.1628H121.811C120.18 28.1628 118.974 27.7733 118.171 26.9982C117.377 26.2244 116.981 25.0447 116.981 23.448V5.922C116.981 4.31022 117.371 3.12431 118.165 2.36428C118.96 1.59042 120.166 1.20726 121.81 1.20726H122.548V0.523859H113.158ZM152.407 1.20726C153.286 1.26254 153.974 1.36053 154.463 1.48615C154.954 1.61178 155.443 1.82032 155.924 2.11428C156.825 2.6507 157.513 3.42456 157.988 4.44338C158.471 5.46095 158.713 6.6544 158.713 8.0212V25.0246L139.102 0.523859H128.988V1.2148H128.966C130.754 1.2148 132.35 1.91077 133.464 3.13813L133.825 3.57782C134.619 4.64564 135.094 6.03255 135.094 7.6795V22.5762C135.094 23.7897 134.882 24.801 134.456 25.6163C134.024 26.4404 133.364 27.0472 132.471 27.4656C131.57 27.8839 130.414 28.1276 128.988 28.198V28.8889H142.91V28.198C141.903 28.1628 141.144 28.1 140.612 28.0158C139.648 27.8977 138.825 27.6465 138.151 27.2558C137.332 26.7574 136.698 26.017 136.342 25.1427C135.989 24.2433 135.79 23.0573 135.79 21.5586V5.96345L154.641 28.8876H163.606V28.1967H163.649C160.946 28.1967 159.45 27.0673 159.45 23.7621V8.15939C159.45 5.8931 159.953 4.17706 160.96 2.98487C161.975 1.80022 163.436 1.20726 165.358 1.20726H165.62V0.523859H152.407V1.20726Z" fill="black"/>
</g>
</g>
</svg>
